# AST/ASF file generated using VICON BodyLanguage
# -----------------------------------------------
:version 1.10
:name VICON
:units
  mass 1.0
  length 0.45
  angle deg
:documentation
   .ast/.asf automatically generated from VICON data using
   VICON BodyBuilder and BodyLanguage model FoxedUp or BRILLIANT.MOD
:root
   order TX TY TZ RX RY RZ
   axis XYZ
   position 0 0 0  
   orientation 0 0 0 
:bonedata
  begin
     id 1 
     name lhipjoint
     direction 0.541323 -0.757556 0.364798 
     length 2.47576 
     axis 0 0 0  XYZ
  end
  begin
     id 2 
     name lfemur
     direction 0.34202 -0.939693 0  
     length 7.46493  
     axis 0 0 20  XYZ
    dof rx ry rz
    limits (-160.0 20.0)
           (-70.0 70.0)
           (-60.0 70.0)
  end
  begin
     id 3 
     name ltibia
     direction 0.34202 -0.939693 0   
     length 7.73805   
     axis 0 0 20   XYZ
    dof rx
    limits (-10.0 170.0)
  end
  begin
     id 4 
     name lfoot
     direction 0.107174 -0.294458 0.949636   
     length 2.25864   
     axis -90 7.62852e-016 20   XYZ
    dof rx rz
    limits (-45.0 90.0)
           (-70.0 20.0)
  end
  begin
     id 5 
     name ltoes
     direction 1.53606e-011 -4.21934e-011 1   
     length 1.12451   
     axis -90 7.62852e-016 20   XYZ
    dof rx
    limits (-90.0 20.0)
  end
  begin
     id 6 
     name rhipjoint
     direction -0.524745 -0.766967 0.36933   
     length 2.44538  
     axis 0 0 0  XYZ 
  end
  begin
     id 7 
     name rfemur
     direction -0.34202 -0.939693 0   
     length 7.61604   
     axis 0 0 -20   XYZ
    dof rx ry rz
    limits (-160.0 20.0)
           (-70.0 70.0)
           (-70.0 60.0)
  end
  begin
     id 8 
     name rtibia
     direction -0.34202 -0.939693 0   
     length 7.61056   
     axis 0 0 -20   XYZ
    dof rx
    limits (-10.0 170.0)
 end
 begin
     id 9 
     name rfoot
     direction -0.12616 -0.346623 0.929482   
     length 2.46372  
     axis -90 -7.62852e-016 -20   XYZ
    dof rx rz
    limits (-45.0 90.0)
           (-20.0 70.0)
  end
  begin
     id 10 
     name rtoes
     direction -1.53531e-011 -4.22004e-011 1   
     length 1.21611   
     axis -90 -7.62852e-016 -20   XYZ
    dof rx
    limits (-90.0 20.0)
  end
  begin
     id 11 
     name lowerback
     direction -0.000778023 0.997293 -0.0735223   
     length 2.06139   
     axis 0 0 0   XYZ
    dof rx ry rz
    limits (-20.0 45.0)
           (-30.0 30.0)
           (-30.0 30.0)
  end
  begin
     id 12 
     name upperback
     direction 0.0222598 0.999722 -0.0078355   
     length 2.06383   
     axis 0 0 0   XYZ
    dof rx ry rz
    limits (-20.0 45.0)
           (-30.0 30.0)
           (-30.0 30.0)
  end
  begin
     id 13 
     name thorax
     direction 0.0219654 0.999405 0.0265994   
     length 2.07163   
     axis 0 0 0   XYZ
    dof rx ry rz
    limits (-20.0 45.0)
           (-30.0 30.0)
           (-30.0 30.0)
  end
  begin
     id 14 
     name lowerneck
     direction 0.0213282 0.988147 0.15202   
     length 1.75969   
     axis 0 0 0   XYZ
    dof rx ry rz
    limits (-20.0 45.0)
           (-30.0 30.0)
           (-30.0 30.0)
  end
  begin
     id 15 
     name upperneck
     direction -0.0546456 0.982624 -0.177379   
     length 1.79244   
     axis 0 0 0   XYZ
    dof rx ry rz
    limits (-20.0 45.0)
           (-30.0 30.0)
           (-30.0 30.0)
  end
  begin
     id 16
     name head
     direction -0.0199987 0.996855 -0.076686  
     length 1.80555  
     axis 0 0 0   XYZ
    dof rx ry rz
    limits (-20.0 45.0)
           (-30.0 30.0)
           (-30.0 30.0)
  end
  begin
     id 17 
     name lclavicle
     direction 0.929565 0.363219 -0.063096  
     length 3.55722  
     axis 0 0 0   XYZ
    dof ry rz
    limits (-20.0 10.0)
           (0.0 20.0)
  end
  begin
     id 18 
     name lhumerus
     direction 1 -4.48993e-011 -2.36203e-027   
     length 4.92785   
     axis 180 -30 -90   XYZ
    dof rx ry rz
    limits (-60.0 90.0)
           (-90.0 90.0)
           (-90.0 90.0)
  end
  begin
     id 19
     name lradius
     direction 1 -4.48947e-011 2.02997e-027   
     length 3.44052   
     axis 180 -30 -90   XYZ
    dof rx
    limits (-10.0 170.0)
  end
  begin
     id 20
     name lwrist
     direction 1 -4.48962e-011 1.45991e-027   
     length 1.72026   
     axis 1.49639e-024 90 90   XYZ
    dof ry
    limits (-180.0 0.0)
 end
  begin
     id 21 
     name lhand
     direction 1 -4.48984e-011 2.91906e-027   
     length 0.654326   
     axis -1.863e-015 90 90   XYZ
    dof rx rz
    limits (-90.0 90.0)
           (-45.0 45.0)
  end
  begin
     id 22 
     name lfingers
     direction 1 -4.48961e-011 5.83968e-027   
     length 0.527534   
     axis -3.72598e-015 90 90   XYZ
    dof rx
    limits (0.0 90.0)
  end
  begin
     id 23
     name lthumb
     direction 0.707107 -6.34963e-011 0.707107   
     length 0.757437   
     axis -90 45 -6.68868e-015   XYZ
    dof rx rz
    limits (-45.0 45.0)
           (-45.0 45.0)
  end
  begin
     id 24 
     name rclavicle
     direction -0.902944 0.422599 -0.0781198   
     length 3.54432  
     axis 0 0 0   XYZ 
    dof ry rz
    limits (-10.0 20.0)
           (-20.0 0.0)
  end
  begin
     id 25 
     name rhumerus
     direction -1 -4.48953e-011 -4.75835e-028  
     length 5.09181   
     axis 180 30 90   XYZ
    dof rx ry rz
    limits (-90.0 60.0)
           (-90.0 90.0)
           (-90.0 90.0)
  end
  begin
     id 26 
     name rradius
     direction -1 -4.48986e-011 -3.25889e-027   
     length 3.49865   
     axis 180 30 90   XYZ
    dof rx
    limits (-10.0 170.0)
  end
  begin
     id 27 
     name rwrist
     direction -1 -4.48963e-011 1.45989e-027   
     length 1.74933   
     axis 1.49639e-024 -90 -90   XYZ
    dof ry
    limits (-180.0 0.0)
  end
  begin
     id 28
     name rhand
     direction -1 -4.49003e-011 2.91844e-027   
     length 0.66641   
     axis -1.863e-015 -90 -90   XYZ
    dof rx rz
    limits (-90.0 90.0)
           (-45.0 45.0)
  end
  begin
     id 29
     name rfingers
     direction -1 -4.48973e-011 5.83886e-027   
     length 0.537277   
     axis -3.72598e-015 -90 -90   XYZ
    dof rx
    limits (0.0 90.0)
  end
  begin
     id 30
     name rthumb
     direction -0.707107 -6.34976e-011 0.707107   
     length 0.771425   
     axis -90 -45 6.68868e-015   XYZ
    dof rx rz
    limits (-45.0 45.0)
           (-45.0 45.0)
  end
:hierarchy
  begin
    root lhipjoint rhipjoint lowerback
    lhipjoint lfemur
    lfemur ltibia
    ltibia lfoot
    lfoot ltoes
    rhipjoint rfemur
    rfemur rtibia
    rtibia rfoot
    rfoot rtoes
    lowerback upperback
    upperback thorax
    thorax lowerneck lclavicle rclavicle
    lowerneck upperneck
    upperneck head
    lclavicle lhumerus
    lhumerus lradius
    lradius lwrist
    lwrist lhand lthumb
    lhand lfingers
    rclavicle rhumerus
    rhumerus rradius
    rradius rwrist
    rwrist rhand rthumb
    rhand rfingers
  end

#!OML:ASF H:\LiuWeirdWalks\Patient Classification 1\Patient 1\Session 1\male.ASF
:FULLY-SPECIFIED
:DEGREES
122
root 0.942008 17.8401 -26.714 1.8582 28.8836 1.04399
lowerback 0.311564 3.69244 -3.1439
upperback -0.487168 4.91018 0.821711
thorax -1.0102 2.47987 2.52505
lowerneck -9.90416 0.892242 1.85252
upperneck 27.6983 0.370021 2.95822
head 10.4894 0.827 0.803266
rclavicle 2.56479e-014 -2.18663e-015
rhumerus -32.6201 -9.34281 -78.3412
rradius 30.8068
rwrist -9.71598
rhand -16.6987 -0.976948
rfingers 7.12502
rthumb 9.52608 -30.7416
lclavicle 2.56479e-014 -2.18663e-015
lhumerus -35.7405 7.615 82.4434
lradius 25.3231
lwrist 5.1351
lhand -12.0083 0.969843
lfingers 7.12502
lthumb 14.049 30.475
rfemur -2.49251 -10.2878 13.9136
rtibia 28.6104
rfoot -17.6843 -35.5755
rtoes 0.420655
lfemur -10.7804 -5.44008 -17.4444
ltibia 28.0805
lfoot -12.8598 6.13559
ltoes -9.76015
123
root 0.938992 17.8417 -26.7152 1.89324 28.4391 1.0498
lowerback 0.235172 3.56767 -3.2832
upperback -0.416908 4.7468 0.908556
thorax -0.903 2.39682 2.70302
lowerneck -9.87042 0.768043 1.89145
upperneck 27.7639 0.157798 3.03283
head 10.5094 0.741397 0.798587
rclavicle 3.57269e-014 1.98785e-016
rhumerus -32.4065 -8.97031 -78.4551
rradius 30.8371
rwrist -10.3636
rhand -17.0607 -0.752167
rfingers 7.12502
rthumb 9.17681 -30.5325
lclavicle 3.57269e-014 1.98785e-016
lhumerus -35.7376 7.85017 82.4123
lradius 25.189
lwrist 4.6025
lhand -12.268 1.06533
lfingers 7.12502
lthumb 13.7988 30.5877
rfemur -2.6612 -10.1175 13.8906
rtibia 28.673
rfoot -17.5367 -35.3646
rtoes 0.318311
lfemur -10.7208 -5.34575 -17.4556
ltibia 28.0332
lfoot -12.8142 6.44903
ltoes -9.73793
124
root 0.935759 17.8434 -26.7164 1.92726 27.9859 1.05679
lowerback 0.181308 3.45025 -3.40879
upperback -0.355198 4.59257 0.984403
thorax -0.81458 2.31837 2.85979
lowerneck -9.8659 0.645772 1.93995
upperneck 27.8114 -0.0454381 3.07175
head 10.5285 0.65639 0.780452
rclavicle -5.30817e-014 -1.59028e-015
rhumerus -32.1984 -8.64079 -78.559
rradius 30.8408
rwrist -11.0396
rhand -17.246 -0.592054
rfingers 7.12502
rthumb 8.99793 -30.3802
lclavicle -5.30817e-014 -1.59028e-015
lhumerus -35.7339 8.08403 82.3559
lradius 25.0792
lwrist 4.26212
lhand -12.3812 1.13818
lfingers 7.12502
lthumb 13.6897 30.6679
rfemur -2.83077 -9.93366 13.8685
rtibia 28.7364
rfoot -17.406 -35.157
rtoes 0.224566
lfemur -10.6567 -5.24219 -17.4678
ltibia 27.9845
lfoot -12.7706 6.76057
ltoes -9.70657
125
root 0.932258 17.8453 -26.7176 1.96776 27.5304 1.07392
lowerback 0.171072 3.34087 -3.51507
upperback -0.319154 4.44729 1.03343
thorax -0.772925 2.24519 2.97416
lowerneck -9.8602 0.521339 2.01198
upperneck 27.8383 -0.249687 3.08566
head 10.5397 0.570014 0.748851
rclavicle -2.64601e-014 4.77083e-015
rhumerus -32.0265 -8.38034 -78.66
rradius 30.8169
rwrist -11.6605
rhand -17.3216 -0.474033
rfingers 7.12502
rthumb 8.925 -30.2653
lclavicle -2.64601e-014 4.77083e-015
lhumerus -35.7457 8.29217 82.2562
lradius 24.9909
lwrist 4.12659
lhand -12.3206 1.12859
lfingers 7.12502
lthumb 13.7481 30.6544
rfemur -3.00266 -9.75049 13.837
rtibia 28.7994
rfoot -17.2796 -34.9455
rtoes 0.135882
lfemur -10.5938 -5.12175 -17.4889
ltibia 27.936
lfoot -12.7308 7.05611
ltoes -9.66712
126
root 0.928053 17.8475 -26.719 2.00816 27.0816 1.07861
lowerback 0.191687 3.23055 -3.59804
upperback -0.307474 4.29948 1.07325
thorax -0.770135 2.17164 3.06332
lowerneck -9.85091 0.409797 2.0963
upperneck 27.8613 -0.434097 3.08585
head 10.5485 0.492351 0.712466
rclavicle -9.29536e-014 -1.19271e-014
rhumerus -31.8897 -8.17349 -78.745
rradius 30.7642
rwrist -12.1475
rhand -17.3385 -0.353652
rfingers 7.12502
rthumb 8.90867 -30.1456
lclavicle -9.29536e-014 -1.19271e-014
lhumerus -35.7839 8.46687 82.1424
lradius 24.9188
lwrist 4.02643
lhand -12.252 1.10081
lfingers 7.12502
lthumb 13.8142 30.6221
rfemur -3.18033 -9.55744 13.8253
rtibia 28.8613
rfoot -17.1705 -34.7484
rtoes 0.0618564
lfemur -10.5394 -4.99399 -17.4934
ltibia 27.8867
lfoot -12.6887 7.33689
ltoes -9.63247
127
root 0.923704 17.8499 -26.7209 2.05854 26.6269 1.08646
lowerback 0.243403 3.13248 -3.65834
upperback -0.323629 4.16651 1.09082
thorax -0.810659 2.10655 3.11394
lowerneck -9.82674 0.298691 2.20464
upperneck 27.8529 -0.608197 3.03713
head 10.5421 0.415391 0.655178
rclavicle -9.56651e-015 2.78299e-015
rhumerus -31.8204 -8.06054 -78.8035
rradius 30.7086
rwrist -12.4427
rhand -17.3052 -0.265271
rfingers 7.12502
rthumb 8.94082 -30.0558
lclavicle -9.56651e-015 2.78299e-015
lhumerus -35.8406 8.58712 82.0114
lradius 24.8464
lwrist 3.94019
lhand -12.1927 1.03509
lfingers 7.12502
lthumb 13.8713 30.5525
rfemur -3.37157 -9.36597 13.8106
rtibia 28.9236
rfoot -17.0598 -34.5458
rtoes -0.00669661
lfemur -10.4951 -4.86357 -17.5008
ltibia 27.8339
lfoot -12.6395 7.62062
ltoes -9.58504
128
root 0.918977 17.852 -26.7225 2.11347 26.1909 1.10075
lowerback 0.310143 3.037 -3.71353
upperback -0.355233 4.0361 1.09339
thorax -0.873896 2.04338 3.14508
lowerneck -9.79252 0.186768 2.32502
upperneck 27.8344 -0.786328 2.99313
head 10.5297 0.338147 0.596965
rclavicle 7.72403e-014 1.47101e-014
rhumerus -31.7839 -8.04697 -78.8258
rradius 30.6325
rwrist -12.4938
rhand -17.2007 -0.252955
rfingers 7.12502
rthumb 9.04169 -30.0392
lclavicle 7.72403e-014 1.47101e-014
lhumerus -35.9151 8.64947 81.8773
lradius 24.7931
lwrist 3.88247
lhand -12.1306 0.990455
lfingers 7.12502
lthumb 13.9311 30.5038
rfemur -3.55868 -9.18459 13.7928
rtibia 28.9857
rfoot -16.9627 -34.3504
rtoes -0.0637597
lfemur -10.4533 -4.74483 -17.5116
ltibia 27.776
lfoot -12.5851 7.8951
ltoes -9.5552
129
root 0.913882 17.8541 -26.7241 2.16434 25.7565 1.1097
lowerback 0.389253 2.93381 -3.76348
upperback -0.393313 3.89487 1.10104
thorax -0.949574 1.97519 3.17818
lowerneck -9.7529 0.0875256 2.43662
upperneck 27.8034 -0.939091 2.93123
head 10.511 0.269046 0.536768
rclavicle -6.41205e-014 3.97569e-016
rhumerus -31.7819 -8.06079 -78.8178
rradius 30.5641
rwrist -12.2987
rhand -17.0708 -0.316612
rfingers 7.12502
rthumb 9.16698 -30.0974
lclavicle -6.41205e-014 3.97569e-016
lhumerus -35.9931 8.75325 81.7289
lradius 24.7348
lwrist 3.81932
lhand -12.0826 0.977547
lfingers 7.12502
lthumb 13.9774 30.4877
rfemur -3.74411 -9.00332 13.7821
rtibia 29.0491
rfoot -16.8689 -34.1565
rtoes -0.116504
lfemur -10.4074 -4.64079 -17.5165
ltibia 27.7116
lfoot -12.5221 8.18253
ltoes -9.53762
130
root 0.908488 17.8559 -26.7257 2.20875 25.328 1.11176
lowerback 0.44117 2.82695 -3.82041
upperback -0.408692 3.74999 1.12457
thorax -0.987642 1.90423 3.23422
lowerneck -9.7087 -0.00681183 2.54013
upperneck 27.7401 -1.08133 2.86566
head 10.4789 0.2025 0.477673
rclavicle -9.48762e-014 -6.75868e-015
rhumerus -31.7538 -8.12602 -78.7534
rradius 30.4827
rwrist -11.8068
rhand -16.8534 -0.483141
rfingers 7.12502
rthumb 9.37675 -30.2546
lclavicle -9.48762e-014 -6.75868e-015
lhumerus -36.0473 8.86876 81.6092
lradius 24.7056
lwrist 3.78282
lhand -12.0425 1.01241
lfingers 7.12502
lthumb 14.016 30.5199
rfemur -3.92519 -8.81794 13.7808
rtibia 29.1112
rfoot -16.7735 -33.9732
rtoes -0.166976
lfemur -10.3588 -4.56011 -17.5146
ltibia 27.6424
lfoot -12.4514 8.48386
ltoes -9.5415
